<?xml version="1.0" encoding="utf-8"?>
<!-- Generator: Adobe Illustrator 15.0.2, SVG Export Plug-In . SVG Version: 6.00 Build 0)  -->
<!DOCTYPE svg PUBLIC "-//W3C//DTD SVG 1.1//EN" "http://www.w3.org/Graphics/SVG/1.1/DTD/svg11.dtd">
<svg version="1.1" id="Layer_1" xmlns="http://www.w3.org/2000/svg" xmlns:xlink="http://www.w3.org/1999/xlink" x="0px" y="0px"
	 width="190px" height="25px" viewBox="0 0 190 25" enable-background="new 0 0 190 25" xml:space="preserve">
<path fill="#4D4D4D" d="M64.25,8.254c0-0.077,0.051-0.129,0.128-0.129h3.255c1.852,0,2.727,0.926,2.727,2.329
	c0,0.99-0.463,1.555-1.016,1.853v0.024c0.54,0.208,1.17,0.902,1.17,1.969c0,1.737-1.093,2.573-3.01,2.573h-3.126
	c-0.076,0-0.129-0.053-0.129-0.13V8.254z M67.594,11.767c0.771,0,1.248-0.464,1.248-1.146c0-0.694-0.476-1.157-1.248-1.157h-1.75
	c-0.052,0-0.077,0.026-0.077,0.077v2.148c0,0.052,0.025,0.077,0.077,0.077h1.75V11.767z M65.845,15.534h1.827
	c0.849,0,1.325-0.488,1.325-1.221c0-0.721-0.477-1.21-1.325-1.21h-1.827c-0.051,0-0.077,0.026-0.077,0.077v2.275
	C65.768,15.509,65.792,15.534,65.845,15.534z M73.912,16.874c-0.077,0-0.129-0.053-0.129-0.13v-3.447l-2.534-5.042
	c-0.025-0.064,0.013-0.129,0.103-0.129h1.298c0.077,0,0.141,0.039,0.181,0.129l1.71,3.396h0.039l1.723-3.396
	c0.039-0.09,0.09-0.129,0.179-0.129h1.248c0.103,0,0.129,0.064,0.103,0.129l-2.534,5.042v3.447c0,0.077-0.052,0.13-0.129,0.13
	H73.912z M81.994,8.254c0-0.077,0.051-0.129,0.128-0.129h1.261c0.077,0,0.129,0.052,0.129,0.129v8.49c0,0.076-0.052,0.13-0.129,0.13
	h-1.261c-0.077,0-0.128-0.054-0.128-0.13V8.254z M85.442,8.254c0-0.077,0.052-0.129,0.129-0.129h1.145
	c0.116,0,0.179,0.039,0.219,0.129l2.405,5.39h0.051l2.367-5.39c0.038-0.09,0.103-0.129,0.219-0.129h1.131
	c0.078,0,0.129,0.052,0.129,0.129v8.49c0,0.076-0.051,0.13-0.129,0.13H91.99c-0.078,0-0.129-0.054-0.129-0.13v-5.352h-0.052
	l-1.852,4.116c-0.051,0.117-0.129,0.169-0.245,0.169h-0.747c-0.116,0-0.193-0.053-0.245-0.169l-1.852-4.116h-0.051v5.352
	c0,0.075-0.052,0.128-0.129,0.128h-1.119c-0.078,0-0.129-0.053-0.129-0.128V8.254z M95.299,16.874c-0.077,0-0.129-0.053-0.129-0.13
	v-8.49c0-0.077,0.053-0.129,0.129-0.129h3.28c1.698,0,2.882,1.094,2.882,2.714c0,1.634-1.184,2.728-2.882,2.728h-1.813
	c-0.052,0-0.077,0.025-0.077,0.076v3.101c0,0.075-0.052,0.128-0.129,0.128h-1.261V16.874z M99.941,10.839
	c0-0.797-0.553-1.351-1.453-1.351h-1.723c-0.052,0-0.077,0.026-0.077,0.078v2.547c0,0.051,0.026,0.077,0.077,0.077h1.723
	C99.389,12.19,99.941,11.651,99.941,10.839z M102.863,8.254c0-0.077,0.052-0.129,0.129-0.129h1.261c0.078,0,0.129,0.052,0.129,0.129
	v7.179c0,0.05,0.024,0.075,0.076,0.075h4.014c0.076,0,0.129,0.052,0.129,0.129v1.106c0,0.076-0.053,0.13-0.129,0.13h-5.479
	c-0.078,0-0.129-0.054-0.129-0.13V8.254L102.863,8.254z M109.877,8.254c0-0.077,0.052-0.129,0.128-0.129h1.261
	c0.078,0,0.129,0.052,0.129,0.129v8.49c0,0.076-0.053,0.13-0.129,0.13h-1.261c-0.076,0-0.128-0.054-0.128-0.13V8.254z M113.067,12.5
	c0-1.389,0.052-1.826,0.232-2.367c0.449-1.428,1.557-2.148,3.035-2.148c1.403,0,2.458,0.721,2.959,1.878
	c0.025,0.065,0,0.128-0.064,0.155l-1.094,0.527c-0.076,0.039-0.14,0-0.167-0.064c-0.283-0.618-0.771-1.131-1.634-1.131
	c-0.835,0-1.325,0.451-1.569,1.157c-0.116,0.36-0.154,0.708-0.154,1.994s0.038,1.635,0.154,1.994
	c0.244,0.708,0.734,1.158,1.569,1.158c0.862,0,1.351-0.516,1.634-1.132c0.027-0.063,0.091-0.104,0.167-0.063l1.094,0.526
	c0.064,0.026,0.09,0.09,0.064,0.154c-0.501,1.158-1.556,1.878-2.959,1.878c-1.479,0-2.586-0.72-3.035-2.148
	C113.119,14.326,113.067,13.889,113.067,12.5z M122.987,8.254c0.026-0.077,0.078-0.129,0.168-0.129h1.185
	c0.088,0,0.14,0.052,0.166,0.129l2.959,8.49c0.024,0.076,0,0.13-0.09,0.13h-1.261c-0.09,0-0.142-0.04-0.166-0.13l-0.579-1.698
	h-3.293l-0.579,1.698c-0.026,0.09-0.078,0.13-0.168,0.13h-1.248c-0.089,0-0.114-0.054-0.089-0.13L122.987,8.254z M124.904,13.696
	l-1.156-3.396h-0.04l-1.17,3.396H124.904z M130.605,16.874c-0.076,0-0.129-0.053-0.129-0.13V9.566c0-0.052-0.025-0.076-0.076-0.076
	h-2.29c-0.077,0-0.129-0.053-0.129-0.129V8.254c0-0.077,0.052-0.129,0.129-0.129h6.252c0.077,0,0.129,0.052,0.129,0.129v1.107
	c0,0.076-0.052,0.129-0.129,0.129h-2.29c-0.052,0-0.077,0.025-0.077,0.076v7.178c0,0.076-0.053,0.13-0.128,0.13H130.605
	L130.605,16.874z M135.74,8.254c0-0.077,0.052-0.129,0.129-0.129h1.26c0.076,0,0.129,0.052,0.129,0.129v8.49
	c0,0.076-0.053,0.13-0.129,0.13h-1.26c-0.077,0-0.129-0.054-0.129-0.13V8.254z M139.163,14.905
	c-0.181-0.539-0.231-1.028-0.231-2.406c0-1.377,0.051-1.865,0.231-2.405c0.449-1.39,1.581-2.111,3.087-2.111
	c1.519,0,2.65,0.721,3.1,2.111c0.182,0.54,0.232,1.028,0.232,2.405c0,1.377-0.051,1.867-0.232,2.406
	c-0.449,1.39-1.581,2.109-3.1,2.109C140.744,17.015,139.611,16.295,139.163,14.905z M143.883,14.507
	c0.103-0.323,0.154-0.771,0.154-2.007c0-1.248-0.052-1.685-0.154-2.007c-0.243-0.707-0.757-1.145-1.634-1.145
	c-0.861,0-1.375,0.438-1.62,1.145c-0.104,0.322-0.154,0.759-0.154,2.007c0,1.236,0.051,1.684,0.154,2.007
	c0.245,0.707,0.758,1.146,1.62,1.146C143.126,15.652,143.638,15.214,143.883,14.507z M147.256,8.254
	c0-0.077,0.053-0.129,0.129-0.129h1.184c0.103,0,0.168,0.039,0.22,0.129l3.563,6.034h0.05V8.254c0-0.077,0.052-0.129,0.13-0.129
	h1.119c0.077,0,0.128,0.052,0.128,0.129v8.49c0,0.076-0.051,0.13-0.128,0.13h-1.171c-0.104,0-0.167-0.04-0.22-0.13l-3.577-6.021
	h-0.052v6.021c0,0.076-0.05,0.13-0.127,0.13h-1.12c-0.077,0-0.128-0.054-0.128-0.13V8.254z"/>
<g>
	<path fill="#4D4D4D" d="M166.362,4.519h3.228v2.146h-3.228v11.669h3.228v2.146h-3.228c-1.189,0-2.153-0.961-2.153-2.146v-2.613
		c0-1.187-0.963-2.148-2.152-2.148v-2.147c1.189,0,2.152-0.961,2.152-2.147V6.666C164.209,5.48,165.173,4.519,166.362,4.519"/>
	<path fill="#4D4D4D" d="M179.86,9.279V6.666c0-1.186-0.964-2.146-2.152-2.146h-3.229v2.146h3.229v11.669h-3.229v2.146h3.229
		c1.188,0,2.152-0.961,2.152-2.146v-2.613c0-1.187,0.964-2.148,2.153-2.148v-2.147C180.824,11.426,179.86,10.464,179.86,9.279"/>
</g>
</svg>
