<?xml version="1.0" encoding="utf-8"?>
<!-- Generator: Adobe Illustrator 15.0.2, SVG Export Plug-In . SVG Version: 6.00 Build 0)  -->
<!DOCTYPE svg PUBLIC "-//W3C//DTD SVG 1.1//EN" "http://www.w3.org/Graphics/SVG/1.1/DTD/svg11.dtd">
<svg version="1.1" id="Layer_1" xmlns="http://www.w3.org/2000/svg" xmlns:xlink="http://www.w3.org/1999/xlink" x="0px" y="0px"
	 width="42px" height="42px" viewBox="0 0 42 42" enable-background="new 0 0 42 42" xml:space="preserve">
<g>
	<path fill="#FFFFFF" d="M12.094,19.03c-0.208-0.831-0.053-2.128,0.311-2.855l4.309-8.306c0.416-0.727,1.246-0.934,1.92-0.416
		l7.528,5.555c0.675,0.519,1.35,1.609,1.558,2.44l2.284,9.968L14.378,29.05L12.094,19.03z M15.468,33.67l-0.831-3.53l15.626-3.634
		l0.831,3.53L15.468,33.67z M17.233,11.659c0.156,0.727,0.882,1.193,1.609,1.038c0.727-0.208,1.142-0.883,0.986-1.609
		c-0.156-0.727-0.882-1.194-1.609-1.038C17.544,10.205,17.077,10.932,17.233,11.659z"/>
</g>
</svg>
